{"title":"Wadjda 2012 BRRip XviD titler","uid":9596518,"size":752849326,"categoryP":"video","categoryS":"movies","magnet":"?xt=urn:btih:0e785dbde94bdbcc2692d0355b752bd2e2721dd4&amp;dn=Wadjda+2012+BRRip+XviD+titler&amp;tr=udp%3A%2F%2Ftracker.openbittorrent.com%3A80&amp;tr=udp%3A%2F%2Fopen.demonii.com%3A1337&amp;tr=udp%3A%2F%2Ftracker.coppersurfer.tk%3A6969&amp;tr=udp%3A%2F%2Fexodus.desync.com%3A6969","seeders":1,"leechers":0,"uploader":"movieZ.freak","files":5,"time":1392031549,"description":"SOURCE: Wadjda 2012 720p BluRay x264 - CiNEFiLE\n\n\n\n &lt;a href=&quot;\nhttp://www.imdb.com/title/tt2258858/&quot; rel=&quot;nofollow&quot; target=&quot;_NEW&quot;&gt;\nhttp://www.imdb.com/title/tt2258858/&lt;/a&gt;\n\n\n &lt;a href=&quot;\nhttp://www.rottentomatoes.com/m/wadjda_2013/&quot; rel=&quot;nofollow&quot; target=&quot;_NEW&quot;&gt;\nhttp://www.rottentomatoes.com/m/wadjda_2013/&lt;/a&gt;\n\n\n &lt;a href=&quot;\nhttp://en.wikipedia.org/wiki/Wadjda&quot; rel=&quot;nofollow&quot; target=&quot;_NEW&quot;&gt;\nhttp://en.wikipedia.org/wiki/Wadjda&lt;/a&gt;\n\n\n\n\n- SAMPLE: Yes\n\n\n- SUBTITLE: English\n\n\n- LANGUAGE / AUDIO: Arabic\n\n\n\n \nSCREENSHOTS:\n-------------------    &lt;a href=&quot;\nhttp://someimage.com/thVL&quot; rel=&quot;nofollow&quot; target=&quot;_NEW&quot;&gt;\nhttp://someimage.com/thVL&lt;/a&gt;\n\n\n\n\nDIRECTOR: Haifaa Al-Mansour (as Haifaa Al Mansour)\n\n\n\nCAST: Waad Mohammed, Reem Abdullah, Abdullrahman Al Gohani, Ahd, Sultan Al Assaf,...\n\n\n\nPLOT:\n-----------\nWADJDA is a 10-year-old girl living in a suburb of Riyadh, the capital of Saudi Arabia. Although she lives in a conservative world, Wadjda is fun loving,\nentrepreneurial and always pushing the boundaries of what she can get away with. After a fight with her friend Abdullah, a neighborhood boy she shouldn't be playing with, Wadjda sees a beautiful green bicycle for sale. She wants the bicycle desperately so that she can beat Abdullah in a race. But Wadjda's mother won't allow it, fearing repercussions from a society that sees bicycles as dangerous to a girl's virtue. So Wadjda decides to try and raise the money herself. At first, Wadjda's mother is too preoccupied with convincing her husband not to take a second wife to realize what's going on. And soon enough Wadjda's plans are thwarted when she is caught running various schemes at school. Just as she is losing hope of raising enough money, she hears of a cash prize for a Koran recitation competition at her school. She devotes herself...\n\n\n************************************\n\n- Duration: 1h 36mn\n\n- Bit rate: 879 Kbps\n\n- Res: 720 x 386\n\n- AR: 1.85:1\n\n- FPS: 24.000 fps\n\n- Audio: AC3, 2 channels, 128Kbps\n\n************************************\n\nGeneral\n-------------\nFormat : AVI\nFormat/Info : Audio Video Interleave\nFile size : 704 MiB\nDuration : 1h 36mn\nOverall bit rate : 1 016 Kbps\nWriting library : VirtualDub build 35491\n\n\nVideo\n------------\nFormat : MPEG-4 Visual\nFormat profile : Advanced Simple@L5\nFormat settings, BVOP : 2\nFormat settings, QPel : No\nFormat settings, GMC : No warppoints\nFormat settings, Matrix : Default (H.263)\nCodec ID : XVID\nCodec ID/Hint : XviD\nDuration : 1h 36mn\nBit rate : 879 Kbps\nWidth : 720 pixels\nHeight : 386 pixels\nDisplay aspect ratio : 1.85:1\nFrame rate : 24.000 fps\nColor space : YUV\nChroma subsampling : 4:2:0\nBit depth : 8 bits\nScan type : Progressive\nCompression mode : Lossy\nBits/(Pixel*Frame) : 0.132\nStream size : 609 MiB (86%)\nWriting library : XviD 65\n\n\nAudio\n-----------\nFormat : AC-3\nFormat/Info : Audio Coding 3\nMode extension : CM (complete main)\nFormat settings, Endianness : Big\nCodec ID : 2000\nDuration : 1h 36mn\nBit rate mode : Constant\nBit rate : 128 Kbps\nChannel(s) : 2 channels\nChannel positions : Front: L R\nSampling rate : 48.0 KHz\nBit depth : 16 bits\nCompression mode : Lossy\nStream size : 88.7 MiB (13%)\nAlignment : Aligned on interleaves\nInterleave, duration : 42 ms (1.00 video frame)\nInterleave, preload duration : 512 ms","torrent":{"xt":"urn:btih:0e785dbde94bdbcc2692d0355b752bd2e2721dd4","amp;dn":"Wadjda+2012+BRRip+XviD+titler","amp;tr":["udp%3A%2F%2Ftracker.openbittorrent.com%3A80","udp%3A%2F%2Fopen.demonii.com%3A1337","udp%3A%2F%2Ftracker.coppersurfer.tk%3A6969","udp%3A%2F%2Fexodus.desync.com%3A6969"],"infoHash":"0e785dbde94bdbcc2692d0355b752bd2e2721dd4","infoHashBuffer":{"type":"Buffer","data":[14,120,93,189,233,75,219,204,38,146,208,53,91,117,43,210,226,114,29,212]},"announce":[],"urlList":[]}}